<svg xmlns="http://www.w3.org/2000/svg" xmlns:xlink="http://www.w3.org/1999/xlink" width="500" zoomAndPan="magnify" viewBox="0 0 375 374.999991" height="500" preserveAspectRatio="xMidYMid meet" version="1.0"><defs><clipPath id="6b023f850f"><path d="M 186 79 L 360.785156 79 L 360.785156 375 L 186 375 Z M 186 79 " clip-rule="nonzero"/></clipPath><clipPath id="72e0721bc3"><path d="M 186 79 L 188.882812 79 L 188.882812 296.492188 L 186 296.492188 Z M 186 79 " clip-rule="nonzero"/></clipPath><clipPath id="91cfe51b30"><path d="M 14 0 L 188.882812 0 L 188.882812 296 L 14 296 Z M 14 0 " clip-rule="nonzero"/></clipPath></defs><g clip-path="url(#6b023f850f)"><path fill="#ff66c4" d="M 360.535156 132.414062 C 359.929688 125.007812 357.917969 117.875 354.558594 111.210938 C 351.199219 104.546875 346.660156 98.6875 341.066406 93.792969 C 339.980469 92.84375 338.863281 91.9375 337.714844 91.078125 C 337.332031 90.789062 336.949219 90.507812 336.558594 90.234375 C 336.167969 89.957031 335.777344 89.683594 335.382812 89.417969 C 335.1875 89.285156 334.988281 89.152344 334.789062 89.023438 C 334.386719 88.761719 333.988281 88.503906 333.582031 88.253906 C 333.382812 88.125 333.175781 88.003906 332.972656 87.878906 C 332.363281 87.511719 331.742188 87.152344 331.117188 86.808594 C 330.910156 86.691406 330.699219 86.578125 330.488281 86.464844 C 330.070312 86.238281 329.648438 86.019531 329.21875 85.804688 C 328.792969 85.589844 328.363281 85.378906 327.933594 85.175781 C 325.769531 84.152344 323.535156 83.261719 321.234375 82.5 C 313.867188 80.070312 306.242188 79.160156 298.570312 79.785156 C 291.164062 80.390625 284.03125 82.402344 277.367188 85.761719 C 270.703125 89.125 264.84375 93.664062 259.949219 99.257812 C 254.882812 105.050781 251.082031 111.722656 248.652344 119.089844 L 217.839844 212.550781 L 189.171875 299.511719 C 186.742188 306.878906 185.828125 314.503906 186.453125 322.171875 C 187.0625 329.578125 189.074219 336.714844 192.433594 343.378906 C 195.792969 350.042969 200.332031 355.902344 205.925781 360.792969 C 208.820312 363.328125 211.9375 365.542969 215.25 367.433594 C 218.5625 369.320312 222.074219 370.878906 225.753906 372.089844 C 231.621094 374.023438 237.648438 375 243.730469 375 C 245.289062 375 246.851562 374.933594 248.417969 374.804688 C 255.824219 374.199219 262.957031 372.1875 269.625 368.828125 C 276.285156 365.46875 282.148438 360.929688 287.039062 355.335938 C 292.105469 349.546875 295.90625 342.871094 298.335938 335.503906 L 327.007812 248.542969 L 357.820312 155.082031 C 360.25 147.714844 361.160156 140.09375 360.535156 132.417969 Z M 266.542969 362.714844 C 254.46875 368.800781 240.746094 369.820312 227.902344 365.585938 C 201.390625 356.847656 186.929688 328.164062 195.671875 301.652344 L 224.339844 214.691406 L 320.507812 246.394531 L 291.839844 333.355469 C 287.605469 346.199219 278.621094 356.625 266.542969 362.714844 Z M 255.335938 120.6875 C 255.460938 120.332031 255.585938 119.972656 255.714844 119.621094 C 255.78125 119.441406 255.847656 119.265625 255.914062 119.085938 C 255.953125 118.980469 255.992188 118.878906 256.035156 118.773438 C 256.054688 118.71875 256.074219 118.667969 256.09375 118.617188 C 256.136719 118.507812 256.179688 118.398438 256.222656 118.289062 C 256.226562 118.28125 256.230469 118.273438 256.234375 118.265625 C 256.292969 118.113281 256.355469 117.960938 256.417969 117.808594 C 256.425781 117.789062 256.4375 117.765625 256.445312 117.746094 C 256.449219 117.734375 256.453125 117.722656 256.457031 117.714844 C 256.519531 117.566406 256.582031 117.417969 256.644531 117.269531 C 256.703125 117.132812 256.761719 116.996094 256.820312 116.859375 C 256.960938 116.535156 257.105469 116.21875 257.25 115.898438 L 257.3125 115.761719 C 267.4375 93.902344 291.902344 82.070312 315.457031 87.949219 C 315.480469 87.953125 315.503906 87.957031 315.53125 87.964844 C 315.628906 87.992188 315.730469 88.015625 315.828125 88.039062 C 316 88.085938 316.167969 88.128906 316.335938 88.175781 C 316.425781 88.199219 316.515625 88.222656 316.609375 88.246094 C 316.699219 88.273438 316.785156 88.296875 316.878906 88.324219 C 316.953125 88.34375 317.027344 88.363281 317.097656 88.386719 C 317.203125 88.417969 317.308594 88.445312 317.414062 88.476562 L 317.417969 88.476562 C 317.597656 88.53125 317.777344 88.582031 317.957031 88.636719 C 318.089844 88.679688 318.222656 88.71875 318.355469 88.761719 C 318.601562 88.835938 318.847656 88.917969 319.09375 89 C 319.292969 89.066406 319.496094 89.132812 319.695312 89.199219 C 319.894531 89.269531 320.09375 89.339844 320.289062 89.40625 C 320.488281 89.476562 320.6875 89.550781 320.882812 89.625 C 321.277344 89.769531 321.667969 89.917969 322.058594 90.074219 C 322.230469 90.144531 322.398438 90.210938 322.566406 90.28125 C 322.652344 90.3125 322.734375 90.347656 322.820312 90.386719 C 322.933594 90.433594 323.046875 90.480469 323.160156 90.527344 C 323.5625 90.699219 323.964844 90.875 324.363281 91.058594 C 324.542969 91.140625 324.722656 91.226562 324.902344 91.308594 C 325.011719 91.359375 325.117188 91.410156 325.226562 91.460938 C 325.316406 91.503906 325.402344 91.550781 325.492188 91.59375 C 325.832031 91.757812 326.171875 91.929688 326.511719 92.101562 C 326.5625 92.128906 326.617188 92.15625 326.671875 92.183594 C 326.832031 92.269531 326.996094 92.355469 327.15625 92.441406 C 327.246094 92.488281 327.339844 92.535156 327.429688 92.585938 C 327.523438 92.636719 327.613281 92.683594 327.703125 92.738281 C 328.066406 92.933594 328.425781 93.136719 328.78125 93.34375 C 328.953125 93.445312 329.125 93.546875 329.292969 93.648438 C 329.882812 94 330.46875 94.363281 331.042969 94.742188 C 329.933594 94.289062 328.804688 93.871094 327.652344 93.492188 C 314.8125 89.257812 301.089844 90.277344 289.011719 96.367188 C 276.9375 102.457031 267.953125 112.882812 263.71875 125.722656 L 260.195312 136.417969 L 251.136719 133.433594 L 255.160156 121.230469 C 255.21875 121.046875 255.277344 120.867188 255.339844 120.6875 Z M 244.390625 153.878906 L 247.480469 144.503906 L 256.539062 147.488281 L 253.449219 156.863281 Z M 244.390625 153.878906 " fill-opacity="1" fill-rule="nonzero"/></g><path fill="#ff66c4" d="M 279.410156 324.757812 C 275.382812 336.984375 266.828125 346.910156 255.332031 352.707031 C 243.839844 358.5 230.773438 359.472656 218.546875 355.441406 C 217.453125 355.082031 216.375 354.683594 215.316406 354.25 C 218.808594 356.535156 222.628906 358.382812 226.695312 359.722656 C 238.921875 363.753906 251.988281 362.78125 263.484375 356.988281 C 274.980469 351.191406 283.53125 341.265625 287.5625 329.039062 L 291.390625 317.421875 L 282.769531 314.582031 Z M 279.410156 324.757812 " fill-opacity="1" fill-rule="nonzero"/><path fill="#ff66c4" d="M 297.808594 297.960938 L 289.183594 295.117188 L 286.238281 304.039062 L 294.867188 306.882812 Z M 297.808594 297.960938 " fill-opacity="1" fill-rule="nonzero"/><path fill="#ff66c4" d="M 185.824219 219.917969 L 157.15625 132.957031 L 126.339844 39.5 C 123.910156 32.132812 120.113281 25.457031 115.046875 19.667969 C 114.128906 18.617188 113.175781 17.605469 112.195312 16.628906 C 111.867188 16.308594 111.535156 15.984375 111.199219 15.671875 C 110.527344 15.035156 109.84375 14.421875 109.140625 13.824219 C 108.792969 13.523438 108.441406 13.230469 108.082031 12.9375 C 107.371094 12.359375 106.644531 11.792969 105.898438 11.246094 C 105.53125 10.972656 105.15625 10.707031 104.777344 10.441406 C 104.402344 10.179688 104.019531 9.917969 103.636719 9.664062 C 101.714844 8.386719 99.710938 7.222656 97.628906 6.171875 C 90.964844 2.8125 83.828125 0.800781 76.425781 0.195312 C 74.859375 0.0664062 73.296875 0.00390625 71.734375 0.00390625 C 65.652344 0.00390625 59.625 0.976562 53.761719 2.910156 C 46.394531 5.335938 39.71875 9.136719 33.929688 14.203125 C 28.335938 19.097656 23.792969 24.957031 20.4375 31.621094 C 17.078125 38.285156 15.066406 45.421875 14.457031 52.824219 C 13.832031 60.496094 14.746094 68.121094 17.171875 75.488281 L 47.984375 168.949219 L 76.65625 255.910156 C 79.085938 263.277344 82.886719 269.949219 87.953125 275.742188 C 92.84375 281.335938 98.707031 285.878906 105.367188 289.234375 C 112.035156 292.59375 119.167969 294.605469 126.574219 295.210938 C 128.140625 295.339844 129.699219 295.40625 131.261719 295.40625 C 137.34375 295.40625 143.371094 294.429688 149.238281 292.496094 C 156.601562 290.066406 163.277344 286.269531 169.070312 281.199219 C 174.664062 276.308594 179.203125 270.449219 182.5625 263.785156 C 185.921875 257.121094 187.933594 249.984375 188.539062 242.578125 C 189.167969 234.910156 188.253906 227.285156 185.824219 219.917969 Z M 83.160156 253.769531 L 54.488281 166.808594 L 150.65625 135.101562 L 179.324219 222.0625 C 188.066406 248.574219 173.609375 277.257812 147.09375 286 C 120.582031 294.742188 91.902344 280.28125 83.160156 253.769531 Z M 58.902344 8.523438 C 58.875 8.53125 58.847656 8.539062 58.816406 8.546875 C 58.84375 8.539062 58.875 8.53125 58.902344 8.523438 Z M 55.90625 9.410156 C 56.246094 9.296875 56.585938 9.191406 56.925781 9.085938 C 57.101562 9.035156 57.277344 8.984375 57.453125 8.929688 C 57.660156 8.871094 57.867188 8.808594 58.074219 8.75 C 58.226562 8.707031 58.378906 8.667969 58.53125 8.625 C 58.75 8.566406 58.972656 8.507812 59.195312 8.449219 C 59.328125 8.414062 59.464844 8.378906 59.601562 8.34375 C 59.910156 8.269531 60.21875 8.195312 60.527344 8.125 C 60.648438 8.097656 60.773438 8.070312 60.894531 8.042969 C 61.117188 7.996094 61.335938 7.949219 61.558594 7.902344 C 61.699219 7.875 61.839844 7.84375 61.984375 7.816406 C 62.265625 7.761719 62.542969 7.707031 62.824219 7.65625 C 62.964844 7.632812 63.105469 7.609375 63.246094 7.585938 C 63.476562 7.542969 63.710938 7.507812 63.941406 7.46875 C 64.082031 7.449219 64.21875 7.425781 64.359375 7.40625 C 64.625 7.367188 64.886719 7.328125 65.152344 7.296875 C 65.289062 7.277344 65.421875 7.261719 65.558594 7.242188 C 65.816406 7.210938 66.074219 7.179688 66.332031 7.152344 C 66.460938 7.140625 66.59375 7.125 66.722656 7.113281 C 66.984375 7.085938 67.25 7.0625 67.511719 7.039062 C 67.617188 7.03125 67.722656 7.023438 67.824219 7.011719 C 68.121094 6.988281 68.421875 6.96875 68.71875 6.953125 C 68.839844 6.945312 68.960938 6.9375 69.082031 6.929688 C 69.34375 6.917969 69.605469 6.90625 69.871094 6.898438 C 69.953125 6.894531 70.035156 6.890625 70.117188 6.886719 C 70.441406 6.878906 70.765625 6.871094 71.09375 6.867188 C 71.207031 6.863281 71.324219 6.863281 71.4375 6.863281 C 71.664062 6.863281 71.890625 6.863281 72.117188 6.863281 C 72.257812 6.863281 72.402344 6.863281 72.542969 6.867188 C 72.816406 6.871094 73.09375 6.878906 73.367188 6.886719 C 73.503906 6.890625 73.640625 6.898438 73.773438 6.902344 C 73.992188 6.910156 74.210938 6.925781 74.433594 6.933594 C 74.65625 6.949219 74.882812 6.960938 75.105469 6.976562 C 75.339844 6.992188 75.570312 7.007812 75.800781 7.027344 C 75.816406 7.027344 75.828125 7.027344 75.839844 7.03125 C 75.914062 7.035156 75.984375 7.042969 76.058594 7.050781 C 76.367188 7.074219 76.671875 7.105469 76.980469 7.136719 C 77.085938 7.148438 77.1875 7.160156 77.292969 7.171875 C 77.523438 7.195312 77.753906 7.222656 77.980469 7.253906 C 78.132812 7.273438 78.285156 7.292969 78.4375 7.3125 C 78.710938 7.351562 78.988281 7.390625 79.265625 7.429688 C 79.320312 7.441406 79.371094 7.445312 79.425781 7.453125 C 79.738281 7.503906 80.046875 7.554688 80.359375 7.609375 C 80.453125 7.625 80.546875 7.640625 80.636719 7.660156 C 80.925781 7.710938 81.214844 7.765625 81.503906 7.820312 C 81.558594 7.832031 81.613281 7.84375 81.667969 7.855469 C 81.699219 7.859375 81.730469 7.867188 81.765625 7.875 C 82.082031 7.9375 82.394531 8.003906 82.710938 8.074219 C 82.765625 8.085938 82.816406 8.101562 82.871094 8.109375 C 83.152344 8.175781 83.433594 8.242188 83.714844 8.3125 C 83.847656 8.34375 83.976562 8.375 84.109375 8.410156 C 84.367188 8.476562 84.625 8.542969 84.882812 8.609375 C 84.960938 8.632812 85.035156 8.652344 85.113281 8.671875 C 85.117188 8.671875 85.121094 8.675781 85.128906 8.675781 C 85.40625 8.753906 85.683594 8.832031 85.960938 8.914062 C 85.996094 8.925781 86.035156 8.9375 86.070312 8.945312 C 86.226562 8.992188 86.382812 9.042969 86.539062 9.089844 C 86.71875 9.144531 86.898438 9.203125 87.082031 9.257812 C 87.15625 9.28125 87.230469 9.304688 87.304688 9.328125 C 87.578125 9.417969 87.847656 9.511719 88.121094 9.601562 C 88.152344 9.613281 88.183594 9.625 88.214844 9.636719 C 88.316406 9.667969 88.414062 9.703125 88.511719 9.738281 C 88.746094 9.820312 88.976562 9.902344 89.207031 9.988281 C 89.300781 10.023438 89.394531 10.054688 89.484375 10.089844 C 89.496094 10.09375 89.503906 10.097656 89.511719 10.101562 C 89.789062 10.203125 90.0625 10.308594 90.335938 10.417969 C 90.355469 10.425781 90.375 10.433594 90.394531 10.441406 C 90.453125 10.464844 90.507812 10.488281 90.566406 10.511719 C 90.820312 10.613281 91.070312 10.714844 91.324219 10.820312 C 91.40625 10.855469 91.492188 10.890625 91.574219 10.925781 C 91.597656 10.9375 91.625 10.949219 91.648438 10.957031 C 91.921875 11.074219 92.195312 11.195312 92.464844 11.316406 C 92.535156 11.34375 92.601562 11.375 92.667969 11.40625 C 92.949219 11.535156 93.230469 11.664062 93.511719 11.796875 C 93.515625 11.800781 93.519531 11.800781 93.523438 11.804688 C 93.613281 11.847656 93.707031 11.894531 93.796875 11.9375 C 94.003906 12.039062 94.210938 12.136719 94.417969 12.242188 C 94.511719 12.289062 94.601562 12.332031 94.691406 12.378906 C 94.988281 12.527344 95.28125 12.679688 95.570312 12.835938 C 95.613281 12.859375 95.660156 12.882812 95.703125 12.90625 C 95.984375 13.058594 96.261719 13.210938 96.539062 13.367188 C 96.609375 13.40625 96.683594 13.449219 96.753906 13.488281 C 97 13.625 97.242188 13.769531 97.484375 13.910156 C 97.582031 13.96875 97.671875 14.023438 97.765625 14.078125 C 97.976562 14.203125 98.1875 14.332031 98.398438 14.464844 C 98.511719 14.535156 98.628906 14.601562 98.742188 14.675781 C 99.003906 14.84375 99.269531 15.011719 99.535156 15.183594 C 99.59375 15.222656 99.652344 15.261719 99.710938 15.300781 C 99.953125 15.464844 100.199219 15.625 100.441406 15.792969 C 100.5 15.832031 100.5625 15.875 100.621094 15.917969 C 100.875 16.089844 101.125 16.269531 101.375 16.445312 C 101.433594 16.492188 101.496094 16.535156 101.558594 16.582031 C 101.566406 16.585938 101.570312 16.589844 101.578125 16.59375 C 101.824219 16.773438 102.066406 16.953125 102.308594 17.132812 C 102.339844 17.160156 102.371094 17.183594 102.402344 17.207031 C 102.550781 17.320312 102.699219 17.433594 102.84375 17.546875 C 102.976562 17.648438 103.109375 17.75 103.242188 17.855469 C 103.296875 17.898438 103.351562 17.945312 103.410156 17.992188 C 103.652344 18.183594 103.890625 18.382812 104.132812 18.578125 C 104.15625 18.601562 104.179688 18.621094 104.207031 18.640625 C 104.296875 18.714844 104.382812 18.789062 104.472656 18.867188 C 104.640625 19.007812 104.808594 19.152344 104.972656 19.296875 C 105.078125 19.382812 105.179688 19.472656 105.28125 19.566406 C 105.417969 19.6875 105.554688 19.808594 105.695312 19.933594 C 105.808594 20.035156 105.925781 20.140625 106.039062 20.246094 C 106.054688 20.257812 106.070312 20.273438 106.082031 20.285156 C 106.285156 20.46875 106.484375 20.65625 106.679688 20.84375 C 106.765625 20.921875 106.847656 21.003906 106.929688 21.082031 C 107.085938 21.234375 107.246094 21.390625 107.398438 21.542969 C 107.507812 21.648438 107.617188 21.757812 107.722656 21.863281 C 107.902344 22.042969 108.074219 22.222656 108.25 22.402344 C 108.332031 22.488281 108.414062 22.570312 108.496094 22.65625 C 108.515625 22.679688 108.539062 22.703125 108.558594 22.726562 C 108.71875 22.890625 108.871094 23.058594 109.027344 23.230469 C 109.15625 23.371094 109.285156 23.511719 109.410156 23.652344 C 109.53125 23.78125 109.648438 23.914062 109.761719 24.046875 C 109.882812 24.179688 110 24.3125 110.117188 24.449219 C 110.253906 24.609375 110.390625 24.765625 110.523438 24.925781 C 110.617188 25.039062 110.714844 25.148438 110.808594 25.265625 C 111.21875 25.761719 111.621094 26.269531 112.015625 26.785156 C 112.238281 27.078125 112.460938 27.375 112.679688 27.675781 C 112.726562 27.742188 112.777344 27.804688 112.824219 27.871094 C 113.09375 28.242188 113.359375 28.621094 113.617188 29 C 113.8125 29.289062 114.007812 29.582031 114.203125 29.878906 C 114.238281 29.933594 114.273438 29.992188 114.308594 30.046875 C 114.460938 30.285156 114.609375 30.519531 114.757812 30.757812 C 114.835938 30.882812 114.914062 31.007812 114.988281 31.132812 C 115.121094 31.347656 115.253906 31.566406 115.382812 31.785156 C 115.429688 31.863281 115.476562 31.945312 115.523438 32.027344 C 115.699219 32.332031 115.875 32.636719 116.042969 32.945312 C 116.054688 32.960938 116.0625 32.976562 116.070312 32.992188 C 116.238281 33.292969 116.398438 33.59375 116.558594 33.898438 C 116.601562 33.980469 116.644531 34.0625 116.6875 34.148438 C 116.828125 34.417969 116.964844 34.6875 117.101562 34.960938 C 117.160156 35.082031 117.21875 35.203125 117.277344 35.324219 C 117.398438 35.570312 117.515625 35.816406 117.632812 36.066406 C 117.6875 36.183594 117.742188 36.304688 117.796875 36.421875 C 117.921875 36.703125 118.050781 36.984375 118.175781 37.269531 C 118.082031 37.054688 117.988281 36.84375 117.890625 36.632812 C 117.921875 36.699219 117.953125 36.761719 117.980469 36.828125 C 118.046875 36.976562 118.113281 37.121094 118.175781 37.265625 C 118.242188 37.421875 118.3125 37.582031 118.378906 37.742188 C 118.414062 37.820312 118.445312 37.898438 118.476562 37.976562 C 118.511719 38.058594 118.542969 38.136719 118.578125 38.21875 C 118.707031 38.535156 118.835938 38.855469 118.960938 39.179688 C 119.019531 39.339844 119.082031 39.503906 119.144531 39.664062 C 119.191406 39.789062 119.234375 39.910156 119.28125 40.035156 C 119.308594 40.101562 119.332031 40.171875 119.355469 40.242188 C 119.40625 40.375 119.453125 40.507812 119.5 40.644531 C 119.570312 40.84375 119.640625 41.042969 119.707031 41.242188 C 119.75 41.375 119.796875 41.503906 119.839844 41.636719 L 123.863281 53.839844 L 114.804688 56.828125 L 111.28125 46.136719 C 107.046875 33.289062 98.0625 22.867188 85.984375 16.777344 C 73.910156 10.691406 60.1875 9.667969 47.34375 13.902344 C 46.222656 14.273438 45.121094 14.679688 44.035156 15.121094 C 44.246094 14.984375 44.460938 14.84375 44.671875 14.710938 C 44.765625 14.652344 44.855469 14.597656 44.945312 14.539062 C 45.050781 14.476562 45.152344 14.410156 45.257812 14.347656 C 45.441406 14.234375 45.628906 14.121094 45.816406 14.007812 C 45.910156 13.953125 45.996094 13.898438 46.089844 13.847656 C 46.132812 13.820312 46.179688 13.796875 46.222656 13.769531 C 46.308594 13.71875 46.394531 13.671875 46.480469 13.621094 C 46.585938 13.558594 46.691406 13.5 46.800781 13.4375 C 46.886719 13.390625 46.972656 13.339844 47.058594 13.292969 C 47.21875 13.203125 47.378906 13.113281 47.539062 13.027344 C 47.59375 12.996094 47.652344 12.964844 47.707031 12.9375 C 47.757812 12.910156 47.8125 12.878906 47.863281 12.851562 C 47.964844 12.796875 48.066406 12.742188 48.167969 12.6875 C 48.574219 12.476562 48.984375 12.265625 49.398438 12.0625 C 49.488281 12.019531 49.574219 11.976562 49.660156 11.9375 C 50.039062 11.75 50.421875 11.570312 50.808594 11.398438 C 50.90625 11.351562 50.996094 11.308594 51.097656 11.269531 C 51.101562 11.265625 51.109375 11.261719 51.113281 11.261719 C 51.121094 11.257812 51.132812 11.25 51.144531 11.246094 C 51.246094 11.203125 51.34375 11.15625 51.445312 11.113281 C 51.476562 11.097656 51.507812 11.085938 51.539062 11.074219 C 51.589844 11.050781 51.636719 11.03125 51.6875 11.007812 C 51.878906 10.929688 52.066406 10.847656 52.253906 10.769531 C 52.28125 10.757812 52.304688 10.75 52.332031 10.738281 C 52.644531 10.609375 52.957031 10.480469 53.269531 10.355469 C 53.476562 10.277344 53.683594 10.195312 53.890625 10.121094 C 54.390625 9.929688 54.902344 9.746094 55.410156 9.574219 C 55.574219 9.515625 55.742188 9.460938 55.90625 9.40625 Z M 117.566406 35.921875 C 117.574219 35.941406 117.582031 35.953125 117.589844 35.972656 C 117.59375 35.980469 117.597656 35.984375 117.597656 35.992188 C 117.589844 35.96875 117.578125 35.949219 117.566406 35.925781 Z M 118.457031 67.902344 L 127.515625 64.917969 L 130.605469 74.289062 L 121.546875 77.277344 Z M 118.457031 67.902344 " fill-opacity="1" fill-rule="nonzero"/><path fill="#ff66c4" d="M 119.664062 273.117188 C 108.171875 267.320312 99.617188 257.394531 95.585938 245.167969 L 92.230469 234.992188 L 83.609375 237.832031 L 87.4375 249.453125 C 91.46875 261.675781 100.019531 271.601562 111.515625 277.398438 C 123.011719 283.191406 136.078125 284.164062 148.304688 280.132812 C 152.371094 278.792969 156.191406 276.949219 159.683594 274.660156 C 158.625 275.09375 157.546875 275.492188 156.453125 275.851562 C 144.226562 279.882812 131.160156 278.910156 119.667969 273.117188 Z M 119.664062 273.117188 " fill-opacity="1" fill-rule="nonzero"/><path fill="#ff66c4" d="M 85.8125 215.527344 L 77.191406 218.371094 L 80.132812 227.292969 L 88.757812 224.449219 Z M 85.8125 215.527344 " fill-opacity="1" fill-rule="nonzero"/><g clip-path="url(#72e0721bc3)"><path fill="#5ce1e6" d="M 360.535156 132.414062 C 359.929688 125.007812 357.917969 117.875 354.558594 111.210938 C 351.199219 104.546875 346.660156 98.6875 341.066406 93.792969 C 339.980469 92.84375 338.863281 91.9375 337.714844 91.078125 C 337.332031 90.789062 336.949219 90.507812 336.558594 90.234375 C 336.167969 89.957031 335.777344 89.683594 335.382812 89.417969 C 335.1875 89.285156 334.988281 89.152344 334.789062 89.023438 C 334.386719 88.761719 333.988281 88.503906 333.582031 88.253906 C 333.382812 88.125 333.175781 88.003906 332.972656 87.878906 C 332.363281 87.511719 331.742188 87.152344 331.117188 86.808594 C 330.910156 86.691406 330.699219 86.578125 330.488281 86.464844 C 330.070312 86.238281 329.648438 86.019531 329.21875 85.804688 C 328.792969 85.589844 328.363281 85.378906 327.933594 85.175781 C 325.769531 84.152344 323.535156 83.261719 321.234375 82.5 C 313.867188 80.070312 306.242188 79.160156 298.570312 79.785156 C 291.164062 80.390625 284.03125 82.402344 277.367188 85.761719 C 270.703125 89.125 264.84375 93.664062 259.949219 99.257812 C 254.882812 105.050781 251.082031 111.722656 248.652344 119.089844 L 217.839844 212.550781 L 189.171875 299.511719 C 186.742188 306.878906 185.828125 314.503906 186.453125 322.171875 C 187.0625 329.578125 189.074219 336.714844 192.433594 343.378906 C 195.792969 350.042969 200.332031 355.902344 205.925781 360.792969 C 208.820312 363.328125 211.9375 365.542969 215.25 367.433594 C 218.5625 369.320312 222.074219 370.878906 225.753906 372.089844 C 231.621094 374.023438 237.648438 375 243.730469 375 C 245.289062 375 246.851562 374.933594 248.417969 374.804688 C 255.824219 374.199219 262.957031 372.1875 269.625 368.828125 C 276.285156 365.46875 282.148438 360.929688 287.039062 355.335938 C 292.105469 349.546875 295.90625 342.871094 298.335938 335.503906 L 327.007812 248.542969 L 357.820312 155.082031 C 360.25 147.714844 361.160156 140.09375 360.535156 132.417969 Z M 266.542969 362.714844 C 254.46875 368.800781 240.746094 369.820312 227.902344 365.585938 C 201.390625 356.847656 186.929688 328.164062 195.671875 301.652344 L 224.339844 214.691406 L 320.507812 246.394531 L 291.839844 333.355469 C 287.605469 346.199219 278.621094 356.625 266.542969 362.714844 Z M 255.335938 120.6875 C 255.460938 120.332031 255.585938 119.972656 255.714844 119.621094 C 255.78125 119.441406 255.847656 119.265625 255.914062 119.085938 C 255.953125 118.980469 255.992188 118.878906 256.035156 118.773438 C 256.054688 118.71875 256.074219 118.667969 256.09375 118.617188 C 256.136719 118.507812 256.179688 118.398438 256.222656 118.289062 C 256.226562 118.28125 256.230469 118.273438 256.234375 118.265625 C 256.292969 118.113281 256.355469 117.960938 256.417969 117.808594 C 256.425781 117.789062 256.4375 117.765625 256.445312 117.746094 C 256.449219 117.734375 256.453125 117.722656 256.457031 117.714844 C 256.519531 117.566406 256.582031 117.417969 256.644531 117.269531 C 256.703125 117.132812 256.761719 116.996094 256.820312 116.859375 C 256.960938 116.535156 257.105469 116.21875 257.25 115.898438 L 257.3125 115.761719 C 267.4375 93.902344 291.902344 82.070312 315.457031 87.949219 C 315.480469 87.953125 315.503906 87.957031 315.53125 87.964844 C 315.628906 87.992188 315.730469 88.015625 315.828125 88.039062 C 316 88.085938 316.167969 88.128906 316.335938 88.175781 C 316.425781 88.199219 316.515625 88.222656 316.609375 88.246094 C 316.699219 88.273438 316.785156 88.296875 316.878906 88.324219 C 316.953125 88.34375 317.027344 88.363281 317.097656 88.386719 C 317.203125 88.417969 317.308594 88.445312 317.414062 88.476562 L 317.417969 88.476562 C 317.597656 88.53125 317.777344 88.582031 317.957031 88.636719 C 318.089844 88.679688 318.222656 88.71875 318.355469 88.761719 C 318.601562 88.835938 318.847656 88.917969 319.09375 89 C 319.292969 89.066406 319.496094 89.132812 319.695312 89.199219 C 319.894531 89.269531 320.09375 89.339844 320.289062 89.40625 C 320.488281 89.476562 320.6875 89.550781 320.882812 89.625 C 321.277344 89.769531 321.667969 89.917969 322.058594 90.074219 C 322.230469 90.144531 322.398438 90.210938 322.566406 90.28125 C 322.652344 90.3125 322.734375 90.347656 322.820312 90.386719 C 322.933594 90.433594 323.046875 90.480469 323.160156 90.527344 C 323.5625 90.699219 323.964844 90.875 324.363281 91.058594 C 324.542969 91.140625 324.722656 91.226562 324.902344 91.308594 C 325.011719 91.359375 325.117188 91.410156 325.226562 91.460938 C 325.316406 91.503906 325.402344 91.550781 325.492188 91.59375 C 325.832031 91.757812 326.171875 91.929688 326.511719 92.101562 C 326.5625 92.128906 326.617188 92.15625 326.671875 92.183594 C 326.832031 92.269531 326.996094 92.355469 327.15625 92.441406 C 327.246094 92.488281 327.339844 92.535156 327.429688 92.585938 C 327.523438 92.636719 327.613281 92.683594 327.703125 92.738281 C 328.066406 92.933594 328.425781 93.136719 328.78125 93.34375 C 328.953125 93.445312 329.125 93.546875 329.292969 93.648438 C 329.882812 94 330.46875 94.363281 331.042969 94.742188 C 329.933594 94.289062 328.804688 93.871094 327.652344 93.492188 C 314.8125 89.257812 301.089844 90.277344 289.011719 96.367188 C 276.9375 102.457031 267.953125 112.882812 263.71875 125.722656 L 260.195312 136.417969 L 251.136719 133.433594 L 255.160156 121.230469 C 255.21875 121.046875 255.277344 120.867188 255.339844 120.6875 Z M 244.390625 153.878906 L 247.480469 144.503906 L 256.539062 147.488281 L 253.449219 156.863281 Z M 244.390625 153.878906 " fill-opacity="1" fill-rule="nonzero"/></g><g clip-path="url(#91cfe51b30)"><path fill="#5ce1e6" d="M 185.824219 219.917969 L 157.15625 132.957031 L 126.339844 39.5 C 123.910156 32.132812 120.113281 25.457031 115.046875 19.667969 C 114.128906 18.617188 113.175781 17.605469 112.195312 16.628906 C 111.867188 16.308594 111.535156 15.984375 111.199219 15.671875 C 110.527344 15.035156 109.84375 14.421875 109.140625 13.824219 C 108.792969 13.523438 108.441406 13.230469 108.082031 12.9375 C 107.371094 12.359375 106.644531 11.792969 105.898438 11.246094 C 105.53125 10.972656 105.15625 10.707031 104.777344 10.441406 C 104.402344 10.179688 104.019531 9.917969 103.636719 9.664062 C 101.714844 8.386719 99.710938 7.222656 97.628906 6.171875 C 90.964844 2.8125 83.828125 0.800781 76.425781 0.195312 C 74.859375 0.0664062 73.296875 0.00390625 71.734375 0.00390625 C 65.652344 0.00390625 59.625 0.976562 53.761719 2.910156 C 46.394531 5.335938 39.71875 9.136719 33.929688 14.203125 C 28.335938 19.097656 23.792969 24.957031 20.4375 31.621094 C 17.078125 38.285156 15.066406 45.421875 14.457031 52.824219 C 13.832031 60.496094 14.746094 68.121094 17.171875 75.488281 L 47.984375 168.949219 L 76.65625 255.910156 C 79.085938 263.277344 82.886719 269.949219 87.953125 275.742188 C 92.84375 281.335938 98.707031 285.878906 105.367188 289.234375 C 112.035156 292.59375 119.167969 294.605469 126.574219 295.210938 C 128.140625 295.339844 129.699219 295.40625 131.261719 295.40625 C 137.34375 295.40625 143.371094 294.429688 149.238281 292.496094 C 156.601562 290.066406 163.277344 286.269531 169.070312 281.199219 C 174.664062 276.308594 179.203125 270.449219 182.5625 263.785156 C 185.921875 257.121094 187.933594 249.984375 188.539062 242.578125 C 189.167969 234.910156 188.253906 227.285156 185.824219 219.917969 Z M 83.160156 253.769531 L 54.488281 166.808594 L 150.65625 135.101562 L 179.324219 222.0625 C 188.066406 248.574219 173.609375 277.257812 147.09375 286 C 120.582031 294.742188 91.902344 280.28125 83.160156 253.769531 Z M 58.902344 8.523438 C 58.875 8.53125 58.847656 8.539062 58.816406 8.546875 C 58.84375 8.539062 58.875 8.53125 58.902344 8.523438 Z M 55.90625 9.410156 C 56.246094 9.296875 56.585938 9.191406 56.925781 9.085938 C 57.101562 9.035156 57.277344 8.984375 57.453125 8.929688 C 57.660156 8.871094 57.867188 8.808594 58.074219 8.75 C 58.226562 8.707031 58.378906 8.667969 58.53125 8.625 C 58.75 8.566406 58.972656 8.507812 59.195312 8.449219 C 59.328125 8.414062 59.464844 8.378906 59.601562 8.34375 C 59.910156 8.269531 60.21875 8.195312 60.527344 8.125 C 60.648438 8.097656 60.773438 8.070312 60.894531 8.042969 C 61.117188 7.996094 61.335938 7.949219 61.558594 7.902344 C 61.699219 7.875 61.839844 7.84375 61.984375 7.816406 C 62.265625 7.761719 62.542969 7.707031 62.824219 7.65625 C 62.964844 7.632812 63.105469 7.609375 63.246094 7.585938 C 63.476562 7.542969 63.710938 7.507812 63.941406 7.46875 C 64.082031 7.449219 64.21875 7.425781 64.359375 7.40625 C 64.625 7.367188 64.886719 7.328125 65.152344 7.296875 C 65.289062 7.277344 65.421875 7.261719 65.558594 7.242188 C 65.816406 7.210938 66.074219 7.179688 66.332031 7.152344 C 66.460938 7.140625 66.59375 7.125 66.722656 7.113281 C 66.984375 7.085938 67.25 7.0625 67.511719 7.039062 C 67.617188 7.03125 67.722656 7.023438 67.824219 7.011719 C 68.121094 6.988281 68.421875 6.96875 68.71875 6.953125 C 68.839844 6.945312 68.960938 6.9375 69.082031 6.929688 C 69.34375 6.917969 69.605469 6.90625 69.871094 6.898438 C 69.953125 6.894531 70.035156 6.890625 70.117188 6.886719 C 70.441406 6.878906 70.765625 6.871094 71.09375 6.867188 C 71.207031 6.863281 71.324219 6.863281 71.4375 6.863281 C 71.664062 6.863281 71.890625 6.863281 72.117188 6.863281 C 72.257812 6.863281 72.402344 6.863281 72.542969 6.867188 C 72.816406 6.871094 73.09375 6.878906 73.367188 6.886719 C 73.503906 6.890625 73.640625 6.898438 73.773438 6.902344 C 73.992188 6.910156 74.210938 6.925781 74.433594 6.933594 C 74.65625 6.949219 74.882812 6.960938 75.105469 6.976562 C 75.339844 6.992188 75.570312 7.007812 75.800781 7.027344 C 75.816406 7.027344 75.828125 7.027344 75.839844 7.03125 C 75.914062 7.035156 75.984375 7.042969 76.058594 7.050781 C 76.367188 7.074219 76.671875 7.105469 76.980469 7.136719 C 77.085938 7.148438 77.1875 7.160156 77.292969 7.171875 C 77.523438 7.195312 77.753906 7.222656 77.980469 7.253906 C 78.132812 7.273438 78.285156 7.292969 78.4375 7.3125 C 78.710938 7.351562 78.988281 7.390625 79.265625 7.429688 C 79.320312 7.441406 79.371094 7.445312 79.425781 7.453125 C 79.738281 7.503906 80.046875 7.554688 80.359375 7.609375 C 80.453125 7.625 80.546875 7.640625 80.636719 7.660156 C 80.925781 7.710938 81.214844 7.765625 81.503906 7.820312 C 81.558594 7.832031 81.613281 7.84375 81.667969 7.855469 C 81.699219 7.859375 81.730469 7.867188 81.765625 7.875 C 82.082031 7.9375 82.394531 8.003906 82.710938 8.074219 C 82.765625 8.085938 82.816406 8.101562 82.871094 8.109375 C 83.152344 8.175781 83.433594 8.242188 83.714844 8.3125 C 83.847656 8.34375 83.976562 8.375 84.109375 8.410156 C 84.367188 8.476562 84.625 8.542969 84.882812 8.609375 C 84.960938 8.632812 85.035156 8.652344 85.113281 8.671875 C 85.117188 8.671875 85.121094 8.675781 85.128906 8.675781 C 85.40625 8.753906 85.683594 8.832031 85.960938 8.914062 C 85.996094 8.925781 86.035156 8.9375 86.070312 8.945312 C 86.226562 8.992188 86.382812 9.042969 86.539062 9.089844 C 86.71875 9.144531 86.898438 9.203125 87.082031 9.257812 C 87.15625 9.28125 87.230469 9.304688 87.304688 9.328125 C 87.578125 9.417969 87.847656 9.511719 88.121094 9.601562 C 88.152344 9.613281 88.183594 9.625 88.214844 9.636719 C 88.316406 9.667969 88.414062 9.703125 88.511719 9.738281 C 88.746094 9.820312 88.976562 9.902344 89.207031 9.988281 C 89.300781 10.023438 89.394531 10.054688 89.484375 10.089844 C 89.496094 10.09375 89.503906 10.097656 89.511719 10.101562 C 89.789062 10.203125 90.0625 10.308594 90.335938 10.417969 C 90.355469 10.425781 90.375 10.433594 90.394531 10.441406 C 90.453125 10.464844 90.507812 10.488281 90.566406 10.511719 C 90.820312 10.613281 91.070312 10.714844 91.324219 10.820312 C 91.40625 10.855469 91.492188 10.890625 91.574219 10.925781 C 91.597656 10.9375 91.625 10.949219 91.648438 10.957031 C 91.921875 11.074219 92.195312 11.195312 92.464844 11.316406 C 92.535156 11.34375 92.601562 11.375 92.667969 11.40625 C 92.949219 11.535156 93.230469 11.664062 93.511719 11.796875 C 93.515625 11.800781 93.519531 11.800781 93.523438 11.804688 C 93.613281 11.847656 93.707031 11.894531 93.796875 11.9375 C 94.003906 12.039062 94.210938 12.136719 94.417969 12.242188 C 94.511719 12.289062 94.601562 12.332031 94.691406 12.378906 C 94.988281 12.527344 95.28125 12.679688 95.570312 12.835938 C 95.613281 12.859375 95.660156 12.882812 95.703125 12.90625 C 95.984375 13.058594 96.261719 13.210938 96.539062 13.367188 C 96.609375 13.40625 96.683594 13.449219 96.753906 13.488281 C 97 13.625 97.242188 13.769531 97.484375 13.910156 C 97.582031 13.96875 97.671875 14.023438 97.765625 14.078125 C 97.976562 14.203125 98.1875 14.332031 98.398438 14.464844 C 98.511719 14.535156 98.628906 14.601562 98.742188 14.675781 C 99.003906 14.84375 99.269531 15.011719 99.535156 15.183594 C 99.59375 15.222656 99.652344 15.261719 99.710938 15.300781 C 99.953125 15.464844 100.199219 15.625 100.441406 15.792969 C 100.5 15.832031 100.5625 15.875 100.621094 15.917969 C 100.875 16.089844 101.125 16.269531 101.375 16.445312 C 101.433594 16.492188 101.496094 16.535156 101.558594 16.582031 C 101.566406 16.585938 101.570312 16.589844 101.578125 16.59375 C 101.824219 16.773438 102.066406 16.953125 102.308594 17.132812 C 102.339844 17.160156 102.371094 17.183594 102.402344 17.207031 C 102.550781 17.320312 102.699219 17.433594 102.84375 17.546875 C 102.976562 17.648438 103.109375 17.75 103.242188 17.855469 C 103.296875 17.898438 103.351562 17.945312 103.410156 17.992188 C 103.652344 18.183594 103.890625 18.382812 104.132812 18.578125 C 104.15625 18.601562 104.179688 18.621094 104.207031 18.640625 C 104.296875 18.714844 104.382812 18.789062 104.472656 18.867188 C 104.640625 19.007812 104.808594 19.152344 104.972656 19.296875 C 105.078125 19.382812 105.179688 19.472656 105.28125 19.566406 C 105.417969 19.6875 105.554688 19.808594 105.695312 19.933594 C 105.808594 20.035156 105.925781 20.140625 106.039062 20.246094 C 106.054688 20.257812 106.070312 20.273438 106.082031 20.285156 C 106.285156 20.46875 106.484375 20.65625 106.679688 20.84375 C 106.765625 20.921875 106.847656 21.003906 106.929688 21.082031 C 107.085938 21.234375 107.246094 21.390625 107.398438 21.542969 C 107.507812 21.648438 107.617188 21.757812 107.722656 21.863281 C 107.902344 22.042969 108.074219 22.222656 108.25 22.402344 C 108.332031 22.488281 108.414062 22.570312 108.496094 22.65625 C 108.515625 22.679688 108.539062 22.703125 108.558594 22.726562 C 108.71875 22.890625 108.871094 23.058594 109.027344 23.230469 C 109.15625 23.371094 109.285156 23.511719 109.410156 23.652344 C 109.53125 23.78125 109.648438 23.914062 109.761719 24.046875 C 109.882812 24.179688 110 24.3125 110.117188 24.449219 C 110.253906 24.609375 110.390625 24.765625 110.523438 24.925781 C 110.617188 25.039062 110.714844 25.148438 110.808594 25.265625 C 111.21875 25.761719 111.621094 26.269531 112.015625 26.785156 C 112.238281 27.078125 112.460938 27.375 112.679688 27.675781 C 112.726562 27.742188 112.777344 27.804688 112.824219 27.871094 C 113.09375 28.242188 113.359375 28.621094 113.617188 29 C 113.8125 29.289062 114.007812 29.582031 114.203125 29.878906 C 114.238281 29.933594 114.273438 29.992188 114.308594 30.046875 C 114.460938 30.285156 114.609375 30.519531 114.757812 30.757812 C 114.835938 30.882812 114.914062 31.007812 114.988281 31.132812 C 115.121094 31.347656 115.253906 31.566406 115.382812 31.785156 C 115.429688 31.863281 115.476562 31.945312 115.523438 32.027344 C 115.699219 32.332031 115.875 32.636719 116.042969 32.945312 C 116.054688 32.960938 116.0625 32.976562 116.070312 32.992188 C 116.238281 33.292969 116.398438 33.59375 116.558594 33.898438 C 116.601562 33.980469 116.644531 34.0625 116.6875 34.148438 C 116.828125 34.417969 116.964844 34.6875 117.101562 34.960938 C 117.160156 35.082031 117.21875 35.203125 117.277344 35.324219 C 117.398438 35.570312 117.515625 35.816406 117.632812 36.066406 C 117.6875 36.183594 117.742188 36.304688 117.796875 36.421875 C 117.921875 36.703125 118.050781 36.984375 118.175781 37.269531 C 118.082031 37.054688 117.988281 36.84375 117.890625 36.632812 C 117.921875 36.699219 117.953125 36.761719 117.980469 36.828125 C 118.046875 36.976562 118.113281 37.121094 118.175781 37.265625 C 118.242188 37.421875 118.3125 37.582031 118.378906 37.742188 C 118.414062 37.820312 118.445312 37.898438 118.476562 37.976562 C 118.511719 38.058594 118.542969 38.136719 118.578125 38.21875 C 118.707031 38.535156 118.835938 38.855469 118.960938 39.179688 C 119.019531 39.339844 119.082031 39.503906 119.144531 39.664062 C 119.191406 39.789062 119.234375 39.910156 119.28125 40.035156 C 119.308594 40.101562 119.332031 40.171875 119.355469 40.242188 C 119.40625 40.375 119.453125 40.507812 119.5 40.644531 C 119.570312 40.84375 119.640625 41.042969 119.707031 41.242188 C 119.75 41.375 119.796875 41.503906 119.839844 41.636719 L 123.863281 53.839844 L 114.804688 56.828125 L 111.28125 46.136719 C 107.046875 33.289062 98.0625 22.867188 85.984375 16.777344 C 73.910156 10.691406 60.1875 9.667969 47.34375 13.902344 C 46.222656 14.273438 45.121094 14.679688 44.035156 15.121094 C 44.246094 14.984375 44.460938 14.84375 44.671875 14.710938 C 44.765625 14.652344 44.855469 14.597656 44.945312 14.539062 C 45.050781 14.476562 45.152344 14.410156 45.257812 14.347656 C 45.441406 14.234375 45.628906 14.121094 45.816406 14.007812 C 45.910156 13.953125 45.996094 13.898438 46.089844 13.847656 C 46.132812 13.820312 46.179688 13.796875 46.222656 13.769531 C 46.308594 13.71875 46.394531 13.671875 46.480469 13.621094 C 46.585938 13.558594 46.691406 13.5 46.800781 13.4375 C 46.886719 13.390625 46.972656 13.339844 47.058594 13.292969 C 47.21875 13.203125 47.378906 13.113281 47.539062 13.027344 C 47.59375 12.996094 47.652344 12.964844 47.707031 12.9375 C 47.757812 12.910156 47.8125 12.878906 47.863281 12.851562 C 47.964844 12.796875 48.066406 12.742188 48.167969 12.6875 C 48.574219 12.476562 48.984375 12.265625 49.398438 12.0625 C 49.488281 12.019531 49.574219 11.976562 49.660156 11.9375 C 50.039062 11.75 50.421875 11.570312 50.808594 11.398438 C 50.90625 11.351562 50.996094 11.308594 51.097656 11.269531 C 51.101562 11.265625 51.109375 11.261719 51.113281 11.261719 C 51.121094 11.257812 51.132812 11.25 51.144531 11.246094 C 51.246094 11.203125 51.34375 11.15625 51.445312 11.113281 C 51.476562 11.097656 51.507812 11.085938 51.539062 11.074219 C 51.589844 11.050781 51.636719 11.03125 51.6875 11.007812 C 51.878906 10.929688 52.066406 10.847656 52.253906 10.769531 C 52.28125 10.757812 52.304688 10.75 52.332031 10.738281 C 52.644531 10.609375 52.957031 10.480469 53.269531 10.355469 C 53.476562 10.277344 53.683594 10.195312 53.890625 10.121094 C 54.390625 9.929688 54.902344 9.746094 55.410156 9.574219 C 55.574219 9.515625 55.742188 9.460938 55.90625 9.40625 Z M 117.566406 35.921875 C 117.574219 35.941406 117.582031 35.953125 117.589844 35.972656 C 117.59375 35.980469 117.597656 35.984375 117.597656 35.992188 C 117.589844 35.96875 117.578125 35.949219 117.566406 35.925781 Z M 118.457031 67.902344 L 127.515625 64.917969 L 130.605469 74.289062 L 121.546875 77.277344 Z M 118.457031 67.902344 " fill-opacity="1" fill-rule="nonzero"/></g><path fill="#5ce1e6" d="M 119.664062 273.117188 C 108.171875 267.320312 99.617188 257.394531 95.585938 245.167969 L 92.230469 234.992188 L 83.609375 237.832031 L 87.4375 249.453125 C 91.46875 261.675781 100.019531 271.601562 111.515625 277.398438 C 123.011719 283.191406 136.078125 284.164062 148.304688 280.132812 C 152.371094 278.792969 156.191406 276.949219 159.683594 274.660156 C 158.625 275.09375 157.546875 275.492188 156.453125 275.851562 C 144.226562 279.882812 131.160156 278.910156 119.667969 273.117188 Z M 119.664062 273.117188 " fill-opacity="1" fill-rule="nonzero"/><path fill="#5ce1e6" d="M 85.8125 215.527344 L 77.191406 218.371094 L 80.132812 227.292969 L 88.757812 224.449219 Z M 85.8125 215.527344 " fill-opacity="1" fill-rule="nonzero"/></svg>